{
  "accessors": [
    {
      "bufferView": 2,
      "componentType": 5126,
      "count": 86,
      "max": [
        35.15918731689453,
        107.51741027832031,
        72.50505828857422
      ],
      "min": [
        -35.15918731689453,
        -28.867393493652344,
        51.326805114746094
      ],
      "type": "VEC3"
    },
    {
      "bufferView": 2,
      "byteOffset": 1032,
      "componentType": 5126,
      "count": 86,
      "max": [
        0.9764816761016846,
        0.9996934533119202,
        0.7018423676490784
      ],
      "min": [
        -0.9764816761016846,
        -0.7131379246711731,
        0.01002218946814537
      ],
      "type": "VEC3"
    },
    {
      "bufferView": 3,
      "componentType": 5126,
      "count": 86,
      "max": [
        1.0,
        0.9999998211860657,
        0.7337993383407593,
        1.0
      ],
      "min": [
        -0.006704085972160101,
        -0.9999997615814209,
        -0.01626114547252655,
        1.0
      ],
      "type": "VEC4"
    },
    {
      "bufferView": 1,
      "componentType": 5126,
      "count": 86,
      "max": [
        0.7383408546447754,
        0.9905232191085815
      ],
      "min": [
        0.0052865492179989815,
        0.2828386127948761
      ],
      "type": "VEC2"
    },
    {
      "bufferView": 0,
      "componentType": 5125,
      "count": 210,
      "type": "SCALAR"
    },
    {
      "bufferView": 2,
      "byteOffset": 2064,
      "componentType": 5126,
      "count": 4854,
      "max": [
        151.7298583984375,
        61.197242736816406,
        45.03657531738281
      ],
      "min": [
        -51.90404510498047,
        -15.566998481750488,
        -45.03660583496094
      ],
      "type": "VEC3"
    },
    {
      "bufferView": 2,
      "byteOffset": 60312,
      "componentType": 5126,
      "count": 4854,
      "max": [
        1.0,
        1.0,
        1.0
      ],
      "min": [
        -1.0,
        -1.0,
        -1.0
      ],
      "type": "VEC3"
    },
    {
      "bufferView": 3,
      "byteOffset": 1376,
      "componentType": 5126,
      "count": 4854,
      "max": [
        1.0,
        1.0,
        1.0,
        1.0
      ],
      "min": [
        -1.0,
        -1.0,
        -1.0,
        -1.0
      ],
      "type": "VEC4"
    },
    {
      "bufferView": 1,
      "byteOffset": 688,
      "componentType": 5126,
      "count": 4854,
      "max": [
        0.9979999661445618,
        0.9979262948036194
      ],
      "min": [
        0.0020000000949949026,
        0.0020000000949949026
      ],
      "type": "VEC2"
    },
    {
      "bufferView": 0,
      "byteOffset": 840,
      "componentType": 5125,
      "count": 12978,
      "type": "SCALAR"
    },
    {
      "bufferView": 2,
      "byteOffset": 118560,
      "componentType": 5126,
      "count": 4,
      "max": [
        92.13892364501953,
        152.10235595703125,
        0.0
      ],
      "min": [
        -92.13892364501953,
        -152.10235595703125,
        0.0
      ],
      "type": "VEC3"
    },
    {
      "bufferView": 2,
      "byteOffset": 118608,
      "componentType": 5126,
      "count": 4,
      "max": [
        0.0,
        0.0,
        1.0
      ],
      "min": [
        0.0,
        0.0,
        1.0
      ],
      "type": "VEC3"
    },
    {
      "bufferView": 1,
      "byteOffset": 39520,
      "componentType": 5126,
      "count": 4,
      "max": [
        1.0,
        1.0
      ],
      "min": [
        0.0,
        0.0
      ],
      "type": "VEC2"
    },
    {
      "bufferView": 0,
      "byteOffset": 52752,
      "componentType": 5125,
      "count": 6,
      "type": "SCALAR"
    }
  ],
  "asset": {
    "extras": {
      "author": "Renafox (https://sketchfab.com/kryik1023)",
      "license": "CC-BY-NC-4.0 (http://creativecommons.org/licenses/by-nc/4.0/)",
      "source": "https://sketchfab.com/3d-models/toyota-land-cruiser-91b5815c64eb43b0a88f6fdb9df774e4",
      "title": "Toyota Land Cruiser"
    },
    "generator": "Sketchfab-12.68.0",
    "version": "2.0"
  },
  "bufferViews": [
    {
      "buffer": 0,
      "byteLength": 52776,
      "name": "floatBufferViews",
      "target": 34963
    },
    {
      "buffer": 0,
      "byteLength": 39552,
      "byteOffset": 52776,
      "byteStride": 8,
      "name": "floatBufferViews",
      "target": 34962
    },
    {
      "buffer": 0,
      "byteLength": 118656,
      "byteOffset": 92328,
      "byteStride": 12,
      "name": "floatBufferViews",
      "target": 34962
    },
    {
      "buffer": 0,
      "byteLength": 79040,
      "byteOffset": 210984,
      "byteStride": 16,
      "name": "floatBufferViews",
      "target": 34962
    }
  ],
  "buffers": [
    {
      "byteLength": 290024,
      "uri": "scene.bin"
    }
  ],
  "images": [
    {
      "uri": "textures/Material_49_baseColor.png"
    },
    {
      "uri": "textures/Material_49_metallicRoughness.png"
    },
    {
      "uri": "textures/Material_49_normal.png"
    },
    {
      "uri": "textures/Material_48_baseColor.png"
    },
    {
      "uri": "textures/Material_48_emissive.png"
    },
    {
      "uri": "textures/Material_71_baseColor.png"
    },
    {
      "uri": "textures/Material_71_metallicRoughness.png"
    }
  ],
  "materials": [
    {
      "alphaMode": "BLEND",
      "doubleSided": true,
      "name": "Material_49",
      "normalTexture": {
        "index": 2
      },
      "occlusionTexture": {
        "index": 1
      },
      "pbrMetallicRoughness": {
        "baseColorTexture": {
          "index": 0
        },
        "metallicRoughnessTexture": {
          "index": 1
        }
      }
    },
    {
      "doubleSided": true,
      "emissiveFactor": [
        1.0,
        1.0,
        1.0
      ],
      "emissiveTexture": {
        "index": 4
      },
      "name": "Material_48",
      "normalTexture": {
        "index": 2
      },
      "occlusionTexture": {
        "index": 1
      },
      "pbrMetallicRoughness": {
        "baseColorTexture": {
          "index": 3
        },
        "metallicRoughnessTexture": {
          "index": 1
        }
      }
    },
    {
      "alphaMode": "BLEND",
      "doubleSided": true,
      "name": "Material_71",
      "occlusionTexture": {
        "index": 6
      },
      "pbrMetallicRoughness": {
        "baseColorTexture": {
          "index": 5
        },
        "metallicFactor": 0.0,
        "metallicRoughnessTexture": {
          "index": 6
        }
      }
    }
  ],
  "meshes": [
    {
      "name": "Object001_Material #49_0",
      "primitives": [
        {
          "attributes": {
            "NORMAL": 1,
            "POSITION": 0,
            "TANGENT": 2,
            "TEXCOORD_0": 3
          },
          "indices": 4,
          "material": 0,
          "mode": 4
        }
      ]
    },
    {
      "name": "Cylinder002_Material #48_0",
      "primitives": [
        {
          "attributes": {
            "NORMAL": 6,
            "POSITION": 5,
            "TANGENT": 7,
            "TEXCOORD_0": 8
          },
          "indices": 9,
          "material": 1,
          "mode": 4
        }
      ]
    },
    {
      "name": "Plane001_Material #71_0",
      "primitives": [
        {
          "attributes": {
            "NORMAL": 11,
            "POSITION": 10,
            "TEXCOORD_0": 12
          },
          "indices": 13,
          "material": 2,
          "mode": 4
        }
      ]
    }
  ],
  "nodes": [
    {
      "children": [
        1
      ],
      "matrix": [
        1.0,
        0.0,
        0.0,
        0.0,
        0.0,
        2.220446049250313e-16,
        -1.0,
        0.0,
        0.0,
        1.0,
        2.220446049250313e-16,
        0.0,
        0.0,
        0.0,
        0.0,
        1.0
      ],
      "name": "Sketchfab_model"
    },
    {
      "children": [
        2
      ],
      "matrix": [
        1.0,
        0.0,
        0.0,
        0.0,
        0.0,
        0.0,
        1.0,
        0.0,
        0.0,
        -1.0,
        0.0,
        0.0,
        0.0,
        0.0,
        0.0,
        1.0
      ],
      "name": "landcruiser.FBX"
    },
    {
      "children": [
        3,
        5,
        7
      ],
      "name": "RootNode"
    },
    {
      "children": [
        4
      ],
      "matrix": [
        1.0,
        0.0,
        0.0,
        0.0,
        0.0,
        2.220446049250313e-16,
        -1.0,
        0.0,
        0.0,
        1.0,
        2.220446049250313e-16,
        0.0,
        0.0,
        0.0,
        0.0,
        1.0
      ],
      "name": "Object001"
    },
    {
      "mesh": 0,
      "name": "Object001_Material #49_0"
    },
    {
      "children": [
        6
      ],
      "matrix": [
        1.6292068460987963e-07,
        0.0,
        0.9999999999999867,
        0.0,
        -4.371138822550499e-08,
        0.999999999999999,
        7.121489295963928e-15,
        0.0,
        -0.9999999999999858,
        -4.371138822550557e-08,
        1.6292068460987963e-07,
        0.0,
        2.636064436956076e-06,
        15.673032760620117,
        -60.306121826171875,
        1.0
      ],
      "name": "Cylinder002"
    },
    {
      "mesh": 1,
      "name": "Cylinder002_Material #48_0"
    },
    {
      "children": [
        8
      ],
      "matrix": [
        1.0,
        0.0,
        0.0,
        0.0,
        0.0,
        2.220446049250313e-16,
        -1.0,
        0.0,
        0.0,
        1.0,
        2.220446049250313e-16,
        0.0,
        1.2138290405273438,
        5.4148983285730003e-17,
        -1.1252822875976563,
        1.0
      ],
      "name": "Plane001"
    },
    {
      "mesh": 2,
      "name": "Plane001_Material #71_0"
    }
  ],
  "samplers": [
    {
      "magFilter": 9729,
      "minFilter": 9987,
      "wrapS": 10497,
      "wrapT": 10497
    }
  ],
  "scene": 0,
  "scenes": [
    {
      "name": "Sketchfab_Scene",
      "nodes": [
        0
      ]
    }
  ],
  "textures": [
    {
      "sampler": 0,
      "source": 0
    },
    {
      "sampler": 0,
      "source": 1
    },
    {
      "sampler": 0,
      "source": 2
    },
    {
      "sampler": 0,
      "source": 3
    },
    {
      "sampler": 0,
      "source": 4
    },
    {
      "sampler": 0,
      "source": 5
    },
    {
      "sampler": 0,
      "source": 6
    }
  ]
}
