{
  "accessors": [
    {
      "bufferView": 2,
      "componentType": 5126,
      "count": 63182,
      "max": [
        153.72610473632813,
        427.9269104003906,
        109.28489685058594
      ],
      "min": [
        -153.72610473632813,
        -27.431800842285156,
        -109.28489685058594
      ],
      "type": "VEC3"
    },
    {
      "bufferView": 2,
      "byteOffset": 758184,
      "componentType": 5126,
      "count": 63182,
      "max": [
        1.0,
        1.0,
        1.0
      ],
      "min": [
        -1.0,
        -1.0,
        -1.0
      ],
      "type": "VEC3"
    },
    {
      "bufferView": 3,
      "componentType": 5126,
      "count": 63182,
      "max": [
        1.0,
        1.0,
        1.0,
        1.0
      ],
      "min": [
        -1.0,
        -1.0,
        -1.0,
        1.0
      ],
      "type": "VEC4"
    },
    {
      "bufferView": 1,
      "componentType": 5126,
      "count": 63182,
      "max": [
        0.971878170967102,
        0.9886907935142517
      ],
      "min": [
        0.005397433880716562,
        0.030522823333740234
      ],
      "type": "VEC2"
    },
    {
      "bufferView": 0,
      "componentType": 5125,
      "count": 338712,
      "type": "SCALAR"
    },
    {
      "bufferView": 2,
      "byteOffset": 1516368,
      "componentType": 5126,
      "count": 4273,
      "max": [
        111.5,
        590.7244262695313,
        44.89793014526367
      ],
      "min": [
        -111.5,
        60.87253952026367,
        -40.810298919677734
      ],
      "type": "VEC3"
    },
    {
      "bufferView": 2,
      "byteOffset": 1567644,
      "componentType": 5126,
      "count": 4273,
      "max": [
        1.0,
        0.9999701976776123,
        0.9999733567237854
      ],
      "min": [
        -1.0,
        -0.9999727010726929,
        -0.99997478723526
      ],
      "type": "VEC3"
    },
    {
      "bufferView": 3,
      "byteOffset": 1010912,
      "componentType": 5126,
      "count": 4273,
      "max": [
        0.9999998211860657,
        0.9999732971191406,
        0.9999707937240601,
        1.0
      ],
      "min": [
        -1.0,
        -0.99997478723526,
        -0.9999727010726929,
        1.0
      ],
      "type": "VEC4"
    },
    {
      "bufferView": 1,
      "byteOffset": 505456,
      "componentType": 5126,
      "count": 4273,
      "max": [
        0.9866554141044617,
        0.6556043028831482
      ],
      "min": [
        0.2873536944389343,
        0.03641951084136963
      ],
      "type": "VEC2"
    },
    {
      "bufferView": 0,
      "byteOffset": 1354848,
      "componentType": 5125,
      "count": 20622,
      "type": "SCALAR"
    }
  ],
  "asset": {
    "extras": {
      "author": "eucocker (https://sketchfab.com/eucocker)",
      "license": "CC-BY-4.0 (http://creativecommons.org/licenses/by/4.0/)",
      "source": "https://sketchfab.com/3d-models/mirror-cf964a1ff455478ba65771400a4ea1ab",
      "title": "Mirror"
    },
    "generator": "Sketchfab-13.17.0",
    "version": "2.0"
  },
  "bufferViews": [
    {
      "buffer": 0,
      "byteLength": 1437336,
      "name": "floatBufferViews",
      "target": 34963
    },
    {
      "buffer": 0,
      "byteLength": 539640,
      "byteOffset": 1437336,
      "byteStride": 8,
      "name": "floatBufferViews",
      "target": 34962
    },
    {
      "buffer": 0,
      "byteLength": 1618920,
      "byteOffset": 1976976,
      "byteStride": 12,
      "name": "floatBufferViews",
      "target": 34962
    },
    {
      "buffer": 0,
      "byteLength": 1079280,
      "byteOffset": 3595896,
      "byteStride": 16,
      "name": "floatBufferViews",
      "target": 34962
    }
  ],
  "buffers": [
    {
      "byteLength": 4675176,
      "uri": "scene.bin"
    }
  ],
  "images": [
    {
      "uri": "textures/default_baseColor.png"
    },
    {
      "uri": "textures/default_metallicRoughness.png"
    },
    {
      "uri": "textures/default_normal.png"
    }
  ],
  "materials": [
    {
      "doubleSided": true,
      "name": "default",
      "normalTexture": {
        "index": 2
      },
      "occlusionTexture": {
        "index": 1
      },
      "pbrMetallicRoughness": {
        "baseColorTexture": {
          "index": 0
        },
        "metallicRoughnessTexture": {
          "index": 1
        }
      }
    }
  ],
  "meshes": [
    {
      "name": "1_default_0",
      "primitives": [
        {
          "attributes": {
            "NORMAL": 1,
            "POSITION": 0,
            "TANGENT": 2,
            "TEXCOORD_0": 3
          },
          "indices": 4,
          "material": 0,
          "mode": 4
        }
      ]
    },
    {
      "name": "2_default_0",
      "primitives": [
        {
          "attributes": {
            "NORMAL": 6,
            "POSITION": 5,
            "TANGENT": 7,
            "TEXCOORD_0": 8
          },
          "indices": 9,
          "material": 0,
          "mode": 4
        }
      ]
    }
  ],
  "nodes": [
    {
      "children": [
        1
      ],
      "matrix": [
        1.0,
        0.0,
        0.0,
        0.0,
        0.0,
        2.220446049250313e-16,
        -1.0,
        0.0,
        0.0,
        1.0,
        2.220446049250313e-16,
        0.0,
        0.0,
        0.0,
        0.0,
        1.0
      ],
      "name": "Sketchfab_model"
    },
    {
      "children": [
        2
      ],
      "matrix": [
        0.009999999776482582,
        0.0,
        0.0,
        0.0,
        0.0,
        0.0,
        0.009999999776482582,
        0.0,
        0.0,
        -0.009999999776482582,
        0.0,
        0.0,
        0.0,
        0.0,
        0.0,
        1.0
      ],
      "name": "1ad743493ac84309b76b675d1fa46478.fbx"
    },
    {
      "children": [
        3,
        5
      ],
      "name": "RootNode"
    },
    {
      "children": [
        4
      ],
      "matrix": [
        0.07200815218297818,
        0.04775469976308423,
        -0.9962601641487682,
        0.0,
        -0.003442655435986198,
        0.9988590934914382,
        0.047630446911732745,
        0.0,
        0.9973981021351214,
        -4.85722573273506e-17,
        0.07209040059021632,
        0.0,
        -190.74691772460938,
        117.81633758544922,
        930.2869873046875,
        1.0
      ],
      "name": "CINEMA_4D_Editor"
    },
    {
      "name": "Object_4"
    },
    {
      "children": [
        6,
        8
      ],
      "name": "mirror3_obj"
    },
    {
      "children": [
        7
      ],
      "name": "1"
    },
    {
      "mesh": 0,
      "name": "1_default_0"
    },
    {
      "children": [
        9
      ],
      "name": "2"
    },
    {
      "mesh": 1,
      "name": "2_default_0"
    }
  ],
  "samplers": [
    {
      "magFilter": 9729,
      "minFilter": 9987,
      "wrapS": 10497,
      "wrapT": 10497
    }
  ],
  "scene": 0,
  "scenes": [
    {
      "name": "Sketchfab_Scene",
      "nodes": [
        0
      ]
    }
  ],
  "textures": [
    {
      "sampler": 0,
      "source": 0
    },
    {
      "sampler": 0,
      "source": 1
    },
    {
      "sampler": 0,
      "source": 2
    }
  ]
}
